# xmcd
#
# Track frame offsets:
#	150
#	10086
#	19746
#	33458
#	43694
#	52124
#	62131
#	71946
#	81244
#	95698
#	106773
#	117626
#	127043
#	155251
#	157241
#	165763
#	178358
#	190506
#	196785
#	205456
#	214703
#	224630
#	233987
#	243790
#	252574
#
# Disc length: 3466 seconds
#
# Revision: 0
# Processed by: cddbd v1.5.2PL0 Copyright (c) Steve Scherf et al.
# Submitted via: EasyCDDAExtractor 8.2.3.1
#
DISCID=710d8819
DTITLE=Jimmy Bryant - Frettin' Fingers_The Lightning Guitar Of J B_cd2
DYEAR=1900
DGENRE=Guitar
TTITLE0=Stratosphere Boogie
TTITLE1=Flippin' The Lid
TTITLE2=Deep Water
TTITLE3=Shuffleboard Rag
TTITLE4=Caffeine Patrol
TTITLE5=Pickin' Peppers
TTITLE6=Chatter Box
TTITLE7=Frettin' Fingers
TTITLE8=Pushin' The Blues
TTITLE9=Rolling Sky
TTITLE10=The Night Rider
TTITLE11=Hillcrest (Opus 3)
TTITLE12=China Boy
TTITLE13=Ha-So
TTITLE14=Tobacco Worm
TTITLE15=Strings (take 6 - early version of Joy Ride) (previously unissued)
TTITLE16=Long Walk Home (take 1) (previously unissued)
TTITLE17=Frettin' Fingers (take1 early version of Rapid Transit) (previously u
TTITLE17=nissued)   
TTITLE18=Whistle Stop (take 1) (previously unissued)
TTITLE19=Peach Grove Express
TTITLE20=Rattle Dance
TTITLE21=Scottish Eagle
TTITLE22=Julie' s Gone
TTITLE23=Buggy Ride
TTITLE24=Blow Your Hat In The Creek
EXTD=
EXTT0=
EXTT1=
EXTT2=
EXTT3=
EXTT4=
EXTT5=
EXTT6=
EXTT7=
EXTT8=
EXTT9=
EXTT10=
EXTT11=
EXTT12=
EXTT13=
EXTT14=
EXTT15=
EXTT16=
EXTT17=
EXTT18=
EXTT19=
EXTT20=
EXTT21=
EXTT22=
EXTT23=
EXTT24=
PLAYORDER=
